<svg xmlns="http://www.w3.org/2000/svg" viewBox="0 0 1000 370" role="img" aria-labelledby="title desc">
<title id="title">像素数量与每像素位数</title><desc id="desc">八乘八网格共六十四像素，四位每像素对应二百五十六位即三十二字节，不计调色板。</desc>
<style>text{font-family:'Microsoft YaHei','Noto Sans CJK SC',sans-serif;fill:#202932;font-size:20px} .small{font-size:17px} .title{font-size:26px;font-weight:700} .blue{fill:#245c9f} .green{fill:#21704b}</style>
<rect width="1000" height="370" rx="16" fill="#fafbfd"/>
<text x="32" y="43" class="title">点阵图：位置数量 × 每个位置的编码长度</text><rect x="45" y="76" width="31" height="31" fill="#eef1f5" stroke="#bcc5d0"/><rect x="76" y="76" width="31" height="31" fill="#eef1f5" stroke="#bcc5d0"/><rect x="107" y="76" width="31" height="31" fill="#eef1f5" stroke="#bcc5d0"/><rect x="138" y="76" width="31" height="31" fill="#eef1f5" stroke="#bcc5d0"/><rect x="169" y="76" width="31" height="31" fill="#eef1f5" stroke="#bcc5d0"/><rect x="200" y="76" width="31" height="31" fill="#eef1f5" stroke="#bcc5d0"/><rect x="231" y="76" width="31" height="31" fill="#eef1f5" stroke="#bcc5d0"/><rect x="262" y="76" width="31" height="31" fill="#eef1f5" stroke="#bcc5d0"/><rect x="45" y="107" width="31" height="31" fill="#eef1f5" stroke="#bcc5d0"/><rect x="76" y="107" width="31" height="31" fill="#eef1f5" stroke="#bcc5d0"/><rect x="107" y="107" width="31" height="31" fill="#328762" stroke="#bcc5d0"/><rect x="138" y="107" width="31" height="31" fill="#eef1f5" stroke="#bcc5d0"/><rect x="169" y="107" width="31" height="31" fill="#eef1f5" stroke="#bcc5d0"/><rect x="200" y="107" width="31" height="31" fill="#328762" stroke="#bcc5d0"/><rect x="231" y="107" width="31" height="31" fill="#eef1f5" stroke="#bcc5d0"/><rect x="262" y="107" width="31" height="31" fill="#eef1f5" stroke="#bcc5d0"/><rect x="45" y="138" width="31" height="31" fill="#eef1f5" stroke="#bcc5d0"/><rect x="76" y="138" width="31" height="31" fill="#eef1f5" stroke="#bcc5d0"/><rect x="107" y="138" width="31" height="31" fill="#328762" stroke="#bcc5d0"/><rect x="138" y="138" width="31" height="31" fill="#eef1f5" stroke="#bcc5d0"/><rect x="169" y="138" width="31" height="31" fill="#eef1f5" stroke="#bcc5d0"/><rect x="200" y="138" width="31" height="31" fill="#328762" stroke="#bcc5d0"/><rect x="231" y="138" width="31" height="31" fill="#eef1f5" stroke="#bcc5d0"/><rect x="262" y="138" width="31" height="31" fill="#eef1f5" stroke="#bcc5d0"/><rect x="45" y="169" width="31" height="31" fill="#eef1f5" stroke="#bcc5d0"/><rect x="76" y="169" width="31" height="31" fill="#eef1f5" stroke="#bcc5d0"/><rect x="107" y="169" width="31" height="31" fill="#328762" stroke="#bcc5d0"/><rect x="138" y="169" width="31" height="31" fill="#328762" stroke="#bcc5d0"/><rect x="169" y="169" width="31" height="31" fill="#328762" stroke="#bcc5d0"/><rect x="200" y="169" width="31" height="31" fill="#328762" stroke="#bcc5d0"/><rect x="231" y="169" width="31" height="31" fill="#eef1f5" stroke="#bcc5d0"/><rect x="262" y="169" width="31" height="31" fill="#eef1f5" stroke="#bcc5d0"/><rect x="45" y="200" width="31" height="31" fill="#eef1f5" stroke="#bcc5d0"/><rect x="76" y="200" width="31" height="31" fill="#eef1f5" stroke="#bcc5d0"/><rect x="107" y="200" width="31" height="31" fill="#328762" stroke="#bcc5d0"/><rect x="138" y="200" width="31" height="31" fill="#328762" stroke="#bcc5d0"/><rect x="169" y="200" width="31" height="31" fill="#328762" stroke="#bcc5d0"/><rect x="200" y="200" width="31" height="31" fill="#328762" stroke="#bcc5d0"/><rect x="231" y="200" width="31" height="31" fill="#eef1f5" stroke="#bcc5d0"/><rect x="262" y="200" width="31" height="31" fill="#eef1f5" stroke="#bcc5d0"/><rect x="45" y="231" width="31" height="31" fill="#eef1f5" stroke="#bcc5d0"/><rect x="76" y="231" width="31" height="31" fill="#eef1f5" stroke="#bcc5d0"/><rect x="107" y="231" width="31" height="31" fill="#328762" stroke="#bcc5d0"/><rect x="138" y="231" width="31" height="31" fill="#eef1f5" stroke="#bcc5d0"/><rect x="169" y="231" width="31" height="31" fill="#eef1f5" stroke="#bcc5d0"/><rect x="200" y="231" width="31" height="31" fill="#328762" stroke="#bcc5d0"/><rect x="231" y="231" width="31" height="31" fill="#eef1f5" stroke="#bcc5d0"/><rect x="262" y="231" width="31" height="31" fill="#eef1f5" stroke="#bcc5d0"/><rect x="45" y="262" width="31" height="31" fill="#eef1f5" stroke="#bcc5d0"/><rect x="76" y="262" width="31" height="31" fill="#eef1f5" stroke="#bcc5d0"/><rect x="107" y="262" width="31" height="31" fill="#328762" stroke="#bcc5d0"/><rect x="138" y="262" width="31" height="31" fill="#eef1f5" stroke="#bcc5d0"/><rect x="169" y="262" width="31" height="31" fill="#eef1f5" stroke="#bcc5d0"/><rect x="200" y="262" width="31" height="31" fill="#328762" stroke="#bcc5d0"/><rect x="231" y="262" width="31" height="31" fill="#eef1f5" stroke="#bcc5d0"/><rect x="262" y="262" width="31" height="31" fill="#eef1f5" stroke="#bcc5d0"/><rect x="45" y="293" width="31" height="31" fill="#eef1f5" stroke="#bcc5d0"/><rect x="76" y="293" width="31" height="31" fill="#eef1f5" stroke="#bcc5d0"/><rect x="107" y="293" width="31" height="31" fill="#eef1f5" stroke="#bcc5d0"/><rect x="138" y="293" width="31" height="31" fill="#eef1f5" stroke="#bcc5d0"/><rect x="169" y="293" width="31" height="31" fill="#eef1f5" stroke="#bcc5d0"/><rect x="200" y="293" width="31" height="31" fill="#eef1f5" stroke="#bcc5d0"/><rect x="231" y="293" width="31" height="31" fill="#eef1f5" stroke="#bcc5d0"/><rect x="262" y="293" width="31" height="31" fill="#eef1f5" stroke="#bcc5d0"/><text x="340" y="112">8 × 8 = 64 个像素</text><text x="340" y="164">每像素 1 bit → 64 bit = 8 B</text><text x="340" y="216" class="blue">每像素 4 bit → 256 bit = 32 B</text><text x="340" y="268">每像素 24 bit → 1,536 bit = 192 B</text><text x="45" y="352" class="small">同一网格，不同编码精度；这里只算像素数据，不含文件头或调色板。</text></svg>